<?xml version="1.0" encoding="utf-8"?>
<!-- Generator: Adobe Illustrator 21.1.0, SVG Export Plug-In . SVG Version: 6.00 Build 0)  -->
<svg version="1.0" id="Layer_1" xmlns="http://www.w3.org/2000/svg" xmlns:xlink="http://www.w3.org/1999/xlink" x="0px" y="0px"
	 viewBox="0 0 250 126" enable-background="new 0 0 250 126" xml:space="preserve">
<polyline fill="#F7F2F6" points="0,0 249.9,0 249.9,10.3 0,10.3 "/>
<g>
	<path fill="#C52051" d="M39.9,38.8c-1.6-1.9-3.9-3-6.3-3c-5.4,0-8.5,5-8.5,9.9c0,4.8,3.2,9.7,8.4,9.7c2.4,0,4.8-1.3,6.4-3v6.7
		c-2.1,1-4.2,1.7-6.5,1.7c-8.1,0-14.1-7-14.1-14.9c0-8.2,5.8-15.3,14.2-15.3c2.2,0,4.5,0.6,6.4,1.7V38.8z"/>
	<path fill="#C52051" d="M49.7,59.9h-5.3V27.6h5.3V59.9z"/>
	<path fill="#C52051" d="M72.1,59.9h-5.3v-1.7h-0.1c-1.1,1.5-3.1,2.3-5.1,2.3c-5.5,0-8.6-5-8.6-10.1c0-5,3.2-9.9,8.5-9.9
		c1.9,0,3.9,0.8,5.2,2.4v-1.8h5.3V59.9z M67.3,50.5c0-2.5-1.7-5.2-4.5-5.2s-4.4,2.7-4.4,5.2s1.7,5.3,4.4,5.3S67.3,53,67.3,50.5z"/>
	<path fill="#C52051" d="M82.1,41.2v10.1c0,2.1,0.3,4.7,3,4.7s3-2.6,3-4.7V41.2h5.3v11c0,5.4-2.8,8.3-8.4,8.3s-8.4-2.9-8.4-8.3v-11
		H82.1z"/>
	<path fill="#C52051" d="M110.6,58.1L110.6,58.1c-1.2,1.5-3.2,2.4-5.1,2.4c-5.5,0-8.6-5-8.6-10.1c0-5,3.2-9.9,8.5-9.9
		c1.9,0,3.9,0.8,5.1,2.3h0.1V27.6h5.3v32.3h-5.3V58.1z M111.1,50.5c0-2.5-1.7-5.2-4.4-5.2s-4.4,2.7-4.4,5.2s1.7,5.3,4.4,5.3
		S111.1,53,111.1,50.5z"/>
	<path fill="#C52051" d="M126.8,33.3c0,1.8-1.4,3.2-3.2,3.2s-3.2-1.4-3.2-3.2c0-1.7,1.4-3.2,3.2-3.2S126.8,31.6,126.8,33.3z
		 M126.3,59.9h-5.3V41.2h5.3V59.9z"/>
	<path fill="#C52051" d="M148.9,59.9h-5.3v-1.7h-0.1c-1.1,1.5-3.1,2.3-5.1,2.3c-5.5,0-8.6-5-8.6-10.1c0-5,3.2-9.9,8.5-9.9
		c1.9,0,3.9,0.8,5.2,2.4v-1.8h5.3V59.9z M144.2,50.5c0-2.5-1.7-5.2-4.5-5.2s-4.4,2.7-4.4,5.2s1.7,5.3,4.4,5.3S144.2,53,144.2,50.5z"
		/>
	<path fill="#C52051" d="M42.2,88.1l-2.4,6.1h-5.9l11.2-29.5h4.3l10.9,29.5h-6l-2.2-6.1H42.2z M47,73.1L47,73.1l-3.2,10.4h6.8
		L47,73.1z"/>
	<path fill="#C52051" d="M68.2,77.1L68.2,77.1c1.1-1.5,2.9-2.3,4.6-2.3c2.3,0,4.2,1,5.4,2.9c1.1-1.8,3.3-2.9,5.4-2.9
		c4.8,0,5.9,3.6,5.9,7.7v11.7h-5.3v-9.8c0-1.8,0.1-5.2-2.5-5.2c-2.9,0-2.9,3.9-2.9,5.9v9.2h-5.3v-9.5c0-1.8,0.2-5.6-2.6-5.6
		c-3,0-2.8,3.9-2.8,5.9v9.2h-5.3V75.5h5.3V77.1z"/>
	<path fill="#C52051" d="M99.7,77.1L99.7,77.1c1.1-1.5,2.9-2.3,4.6-2.3c2.3,0,4.2,1,5.4,2.9c1.1-1.8,3.3-2.9,5.4-2.9
		c4.8,0,5.9,3.6,5.9,7.7v11.7h-5.3v-9.8c0-1.8,0.1-5.2-2.5-5.2c-2.9,0-2.9,3.9-2.9,5.9v9.2h-5.3v-9.5c0-1.8,0.2-5.6-2.6-5.6
		c-3,0-2.8,3.9-2.8,5.9v9.2h-5.3V75.5h5.3V77.1z"/>
	<path fill="#C52051" d="M132,67.6c0,1.8-1.4,3.2-3.2,3.2s-3.2-1.4-3.2-3.2c0-1.7,1.4-3.2,3.2-3.2S132,65.9,132,67.6z M131.5,94.2
		h-5.3V75.5h5.3V94.2z"/>
	<path fill="#C52051" d="M141.8,77.4L141.8,77.4c1.1-1.6,2.7-2.6,4.7-2.6c0.8,0,1.5,0.2,2.2,0.5l-0.6,5c-0.6-0.5-1.4-0.7-2.2-0.7
		c-3.7,0-4.1,3.3-4.1,6.2v8.4h-5.3V75.5h5.3V77.4z"/>
	<path fill="#C52051" d="M169.1,94.2h-5.3v-1.7h-0.1c-1.1,1.5-3.1,2.3-5.1,2.3c-5.5,0-8.6-5-8.6-10.1c0-5,3.2-9.9,8.5-9.9
		c1.9,0,3.9,0.8,5.2,2.4v-1.8h5.3V94.2z M164.3,84.8c0-2.5-1.7-5.2-4.5-5.2s-4.4,2.7-4.4,5.2s1.7,5.3,4.4,5.3S164.3,87.3,164.3,84.8
		z"/>
	<path fill="#C52051" d="M179.8,94.2h-5.3V80h-1.8v-4.5h1.8v-6.3h5.3v6.3h3.3V80h-3.3V94.2z"/>
	<path fill="#C52051" d="M202.9,94.2h-5.3v-1.7h-0.1c-1.1,1.5-3.1,2.3-5.1,2.3c-5.5,0-8.6-5-8.6-10.1c0-5,3.2-9.9,8.5-9.9
		c1.9,0,3.9,0.8,5.2,2.4v-1.8h5.3V94.2z M198.2,84.8c0-2.5-1.7-5.2-4.5-5.2s-4.4,2.7-4.4,5.2s1.7,5.3,4.4,5.3S198.2,87.3,198.2,84.8
		z"/>
</g>
<g>
	<path fill="#6D6E71" d="M43.8,114.1h3.7c2,0,3.4,0.9,3.4,3c0,2.2-1.2,3.1-3.3,3.1h-1.4v3.1h-2.4V114.1z M46.2,118.3h0.4
		c0.9,0,1.7,0,1.7-1.1c0-1.2-0.8-1.2-1.7-1.2h-0.4V118.3z"/>
	<path fill="#6D6E71" d="M63.9,117.7v-3.6h2.4v9.2h-2.4v-3.8h-3.5v3.8H58v-9.2h2.4v3.6H63.9z"/>
	<path fill="#6D6E71" d="M83.7,118.5c0,3-2.1,5.1-5.1,5.1c-3,0-5.1-2.1-5.1-5.1c0-2.8,2.5-4.8,5.1-4.8
		C81.2,113.8,83.7,115.7,83.7,118.5z M76,118.5c0,1.6,1.2,2.8,2.6,2.8s2.6-1.2,2.6-2.8c0-1.3-1.2-2.4-2.6-2.4S76,117.3,76,118.5z"/>
	<path fill="#6D6E71" d="M94.6,123.3h-2.4v-7.2h-2v-2h6.4v2h-2V123.3z"/>
	<path fill="#6D6E71" d="M113.3,118.5c0,3-2.1,5.1-5.1,5.1c-3,0-5.1-2.1-5.1-5.1c0-2.8,2.5-4.8,5.1-4.8
		C110.9,113.8,113.3,115.7,113.3,118.5z M105.6,118.5c0,1.6,1.2,2.8,2.6,2.8s2.6-1.2,2.6-2.8c0-1.3-1.2-2.4-2.6-2.4
		S105.6,117.3,105.6,118.5z"/>
	<path fill="#6D6E71" d="M129.8,118.2c0,1.3-0.1,2.5-0.9,3.7c-0.9,1.3-2.3,1.8-3.8,1.8c-2.9,0-4.9-2-4.9-4.9c0-3,2-5,5-5
		c1.9,0,3.4,0.9,4.2,2.6l-2.3,1c-0.3-0.9-1-1.5-2-1.5c-1.6,0-2.4,1.5-2.4,2.9c0,1.4,0.9,2.9,2.4,2.9c1,0,1.8-0.5,1.9-1.6h-2v-1.9
		H129.8z"/>
	<path fill="#6D6E71" d="M144.7,123.3h-3l-2.3-3.6h0v3.6H137v-9.2h3.6c1.8,0,3.2,0.9,3.2,2.8c0,1.3-0.7,2.4-2,2.6L144.7,123.3z
		 M139.4,118.2h0.2c0.8,0,1.7-0.1,1.7-1.2s-0.9-1.2-1.7-1.2h-0.2V118.2z"/>
	<path fill="#6D6E71" d="M153.8,121.7l-0.6,1.6h-2.5l3.6-9.2h2.6l3.5,9.2h-2.6l-0.6-1.6H153.8z M155.5,116.9L155.5,116.9l-1,2.9h2
		L155.5,116.9z"/>
	<path fill="#6D6E71" d="M167.1,114.1h3.7c2,0,3.4,0.9,3.4,3c0,2.2-1.2,3.1-3.3,3.1h-1.4v3.1h-2.4V114.1z M169.5,118.3h0.4
		c0.9,0,1.7,0,1.7-1.1c0-1.2-0.8-1.2-1.7-1.2h-0.4V118.3z"/>
	<path fill="#6D6E71" d="M187.2,117.7v-3.6h2.4v9.2h-2.4v-3.8h-3.5v3.8h-2.4v-9.2h2.4v3.6H187.2z"/>
	<path fill="#6D6E71" d="M196.3,114.1h2.9l1.7,2.5l1.7-2.5h2.9l-3.4,4.8v4.4h-2.4v-4.4L196.3,114.1z"/>
</g>
</svg>
